<?xml version="1.0" standalone="no"?>
<!DOCTYPE svg PUBLIC "-//W3C//DTD SVG 1.1//EN" "http://www.w3.org/Graphics/SVG/1.1/DTD/svg11.dtd" >
<svg xmlns="http://www.w3.org/2000/svg">
<metadata>Generated by IcoMoon</metadata>
<defs>
<font id="fontawesome" horiz-adv-x="1024">
<font-face units-per-em="1024" ascent="960" descent="-64" />
<missing-glyph horiz-adv-x="1024" />
<glyph unicode="&#x20;" horiz-adv-x="512" d="" />
<glyph unicode="&#xf005;" glyph-name="star" horiz-adv-x="951" d="M950.857 581.143c0-10.286-7.429-20-14.857-27.429l-207.429-202.286 49.143-285.714c0.571-4 0.571-7.429 0.571-11.429 0-14.857-6.857-28.571-23.429-28.571-8 0-16 2.857-22.857 6.857l-256.571 134.857-256.571-134.857c-7.429-4-14.857-6.857-22.857-6.857-16.571 0-24 13.714-24 28.571 0 4 0.571 7.429 1.143 11.429l49.143 285.714-208 202.286c-6.857 7.429-14.286 17.143-14.286 27.429 0 17.143 17.714 24 32 26.286l286.857 41.714 128.571 260c5.143 10.857 14.857 23.429 28 23.429s22.857-12.571 28-23.429l128.571-260 286.857-41.714c13.714-2.286 32-9.143 32-26.286z" />
<glyph unicode="&#xf00d;" glyph-name="close" horiz-adv-x="805" d="M741.714 195.428c0-14.286-5.714-28.571-16-38.857l-77.714-77.714c-10.286-10.286-24.571-16-38.857-16s-28.571 5.714-38.857 16l-168 168-168-168c-10.286-10.286-24.571-16-38.857-16s-28.571 5.714-38.857 16l-77.714 77.714c-10.286 10.286-16 24.571-16 38.857s5.714 28.571 16 38.857l168 168-168 168c-10.286 10.286-16 24.571-16 38.857s5.714 28.571 16 38.857l77.714 77.714c10.286 10.286 24.571 16 38.857 16s28.571-5.714 38.857-16l168-168 168 168c10.286 10.286 24.571 16 38.857 16s28.571-5.714 38.857-16l77.714-77.714c10.286-10.286 16-24.571 16-38.857s-5.714-28.571-16-38.857l-168-168 168-168c10.286-10.286 16-24.571 16-38.857z" />
<glyph unicode="&#xf041;" glyph-name="map-marker" horiz-adv-x="585" d="M438.857 585.143c0 80.571-65.714 146.286-146.286 146.286s-146.286-65.714-146.286-146.286 65.714-146.286 146.286-146.286 146.286 65.714 146.286 146.286zM585.143 585.143c0-34.857-4-70.857-18.857-102.286l-208-442.286c-12-25.143-38.286-40.571-65.714-40.571s-53.714 15.429-65.143 40.571l-208.571 442.286c-14.857 31.429-18.857 67.429-18.857 102.286 0 161.714 130.857 292.571 292.571 292.571s292.571-130.857 292.571-292.571z" />
<glyph unicode="&#xf053;" glyph-name="chevron-left" horiz-adv-x="768" d="M669.143 778.857l-303.429-303.429 303.429-303.429c14.286-14.286 14.286-37.143 0-51.429l-94.857-94.857c-14.286-14.286-37.143-14.286-51.429 0l-424 424c-14.286 14.286-14.286 37.143 0 51.429l424 424c14.286 14.286 37.143 14.286 51.429 0l94.857-94.857c14.286-14.286 14.286-37.143 0-51.429z" />
<glyph unicode="&#xf054;" glyph-name="chevron-right" horiz-adv-x="695" d="M632.571 449.714l-424-424c-14.286-14.286-37.143-14.286-51.429 0l-94.857 94.857c-14.286 14.286-14.286 37.143 0 51.429l303.429 303.429-303.429 303.429c-14.286 14.286-14.286 37.143 0 51.429l94.857 94.857c14.286 14.286 37.143 14.286 51.429 0l424-424c14.286-14.286 14.286-37.143 0-51.429z" />
<glyph unicode="&#xf077;" glyph-name="chevron-up" d="M961.714 190.286l-94.857-94.286c-14.286-14.286-37.143-14.286-51.429 0l-303.429 303.429-303.429-303.429c-14.286-14.286-37.143-14.286-51.429 0l-94.857 94.286c-14.286 14.286-14.286 37.714 0 52l424 423.429c14.286 14.286 37.143 14.286 51.429 0l424-423.429c14.286-14.286 14.286-37.714 0-52z" />
<glyph unicode="&#xf078;" glyph-name="chevron-down" d="M961.714 489.143l-424-423.429c-14.286-14.286-37.143-14.286-51.429 0l-424 423.429c-14.286 14.286-14.286 37.714 0 52l94.857 94.286c14.286 14.286 37.143 14.286 51.429 0l303.429-303.429 303.429 303.429c14.286 14.286 37.143 14.286 51.429 0l94.857-94.286c14.286-14.286 14.286-37.714 0-52z" />
<glyph unicode="&#xf080;" glyph-name="bar-chart" horiz-adv-x="1170" d="M365.714 438.857v-292.571h-146.286v292.571h146.286zM585.143 731.428v-585.143h-146.286v585.143h146.286zM1170.286 73.143v-73.143h-1170.286v877.714h73.143v-804.571h1097.143zM804.571 585.143v-438.857h-146.286v438.857h146.286zM1024 804.571v-658.286h-146.286v658.286h146.286z" />
<glyph unicode="&#xf099;" glyph-name="twitter" horiz-adv-x="987" d="M885.924 639.974c0.627-8.771 0.627-17.544 0.627-26.316 0-267.531-203.624-575.789-575.789-575.789-114.658 0-221.168 33.209-310.764 90.848 16.29-1.878 31.952-2.506 48.87-2.506 94.605 0 181.696 31.952 251.242 86.462-88.969 1.881-163.527 60.148-189.216 140.346 12.532-1.878 25.060-3.132 38.22-3.132 18.169 0 36.34 2.507 53.255 6.891-92.728 18.798-162.275 100.247-162.275 198.614v2.506c26.941-15.037 58.27-24.435 91.474-25.685-54.509 36.34-90.22 98.366-90.22 168.541 0 37.592 10.023 72.051 27.566 102.126 99.621-122.801 249.364-202.997 417.275-211.771-3.132 15.037-5.012 30.699-5.012 46.363 0 111.525 90.223 202.373 202.373 202.373 58.268 0 110.897-24.435 147.863-63.907 45.736 8.771 89.594 25.689 128.442 48.87-15.038-46.992-46.992-86.464-88.969-111.523 40.725 4.384 80.198 15.663 116.535 31.326-27.564-40.097-62.026-75.808-101.496-104.631z" />
<glyph unicode="&#xf09b;" glyph-name="github" horiz-adv-x="951" d="M318.022 155.876c0-3.834-4.41-6.901-9.97-6.901-6.326-0.575-10.737 2.493-10.737 6.901 0 3.834 4.41 6.901 9.97 6.901 5.752 0.575 10.737-2.493 10.737-6.901zM258.396 164.504c-1.342-3.834 2.493-8.244 8.244-9.395 4.984-1.918 10.737 0 11.887 3.834s-2.493 8.244-8.244 9.97c-4.984 1.342-10.546-0.575-11.887-4.41zM343.138 167.763c-5.56-1.342-9.395-4.984-8.82-9.395 0.575-3.834 5.56-6.326 11.312-4.984 5.56 1.342 9.395 4.984 8.82 8.82-0.575 3.642-5.752 6.135-11.312 5.56zM469.294 902.462c-265.926 0-469.348-201.888-469.348-467.815 0-212.625 133.826-394.575 324.977-458.612 24.542-4.41 33.169 10.737 33.169 23.2 0 11.887-0.575 77.458-0.575 117.72 0 0-134.209-28.759-162.393 57.135 0 0-21.858 55.792-53.301 70.172 0 0-43.906 30.101 3.068 29.526 0 0 47.74-3.834 74.006-49.466 41.989-74.006 112.353-52.725 139.77-40.071 4.41 30.677 16.872 51.958 30.677 64.611-107.176 11.887-215.31 27.417-215.31 211.859 0 52.725 14.572 79.183 45.248 112.927-4.984 12.462-21.282 63.845 4.984 130.182 40.071 12.462 132.291-51.766 132.291-51.766 38.345 10.737 79.568 16.297 120.405 16.297s82.059-5.56 120.405-16.297c0 0 92.221 64.42 132.291 51.766 26.266-66.529 9.97-117.72 4.984-130.182 30.677-33.936 49.466-60.394 49.466-112.927 0-185.017-112.927-199.78-220.102-211.859 17.638-15.147 32.593-43.906 32.593-88.961 0-64.611-0.575-144.563-0.575-160.284 0-12.462 8.82-27.609 33.169-23.2 191.728 63.653 321.718 245.602 321.718 458.228 0 265.926-215.693 467.815-481.62 467.815zM186.305 241.193c-2.493-1.918-1.918-6.326 1.342-9.97 3.068-3.068 7.478-4.41 9.97-1.918 2.493 1.918 1.918 6.326-1.342 9.97-3.068 3.068-7.478 4.41-9.97 1.918zM165.599 256.725c-1.342-2.493 0.575-5.56 4.41-7.478 3.068-1.918 6.901-1.342 8.244 1.342 1.342 2.493-0.575 5.56-4.41 7.478-3.834 1.15-6.901 0.575-8.244-1.342zM227.719 188.47c-3.068-2.493-1.918-8.244 2.493-11.887 4.41-4.41 9.97-4.984 12.462-1.918 2.493 2.493 1.342 8.244-2.493 11.887-4.218 4.41-9.97 4.984-12.462 1.918zM205.861 216.654c-3.068-1.918-3.068-6.901 0-11.312s8.244-6.326 10.737-4.41c3.068 2.493 3.068 7.478 0 11.887-2.684 4.41-7.669 6.326-10.737 3.834z" />
<glyph unicode="&#xf09e;" glyph-name="rss, feed" horiz-adv-x="878" d="M239.518 119.511c0-66.116-53.642-119.758-119.758-119.758s-119.758 53.642-119.758 119.758 53.642 119.758 119.758 119.758 119.758-53.642 119.758-119.758zM558.873 42.791c0.623-11.228-3.119-21.831-10.603-29.94-7.485-8.732-18.088-13.099-29.316-13.099h-84.205c-20.583 0-37.425 15.594-39.296 36.177-18.088 190.241-169.034 341.186-359.275 359.275-20.583 1.871-36.177 18.712-36.177 39.296v84.205c0 11.228 4.366 21.831 13.099 29.316 6.861 6.861 16.841 10.603 26.82 10.603h3.119c132.857-10.603 258.228-68.611 352.413-163.42 94.808-94.185 152.817-219.557 163.42-352.413zM878.228 41.543c0.623-10.603-3.119-21.208-11.228-29.316-7.485-8.109-17.465-12.475-28.692-12.475h-89.195c-21.208 0-38.672 16.217-39.919 37.425-20.583 362.393-309.376 651.185-671.769 672.393-21.208 1.248-37.425 18.712-37.425 39.296v89.195c0 11.228 4.366 21.208 12.475 28.692 7.485 7.485 17.465 11.228 27.445 11.228h1.871c218.309-11.228 423.52-102.918 578.208-258.228 155.312-154.687 247.002-359.898 258.228-578.208z" />
<glyph unicode="&#xf0c1;" glyph-name="chain" horiz-adv-x="951" d="M832 256c0 14.857-5.714 28.571-16 38.857l-118.857 118.857c-10.286 10.286-24.571 16-38.857 16-16.571 0-29.714-6.286-41.143-18.286 18.857-18.857 41.143-34.857 41.143-64 0-30.286-24.571-54.857-54.857-54.857-29.143 0-45.143 22.286-64 41.143-12-11.429-18.857-24.571-18.857-41.714 0-14.286 5.714-28.571 16-38.857l117.714-118.286c10.286-10.286 24.571-15.429 38.857-15.429s28.571 5.143 38.857 14.857l84 83.429c10.286 10.286 16 24 16 38.286zM430.286 658.857c0 14.286-5.714 28.571-16 38.857l-117.714 118.286c-10.286 10.286-24.571 16-38.857 16s-28.571-5.714-38.857-15.429l-84-83.429c-10.286-10.286-16-24-16-38.286 0-14.857 5.714-28.571 16-38.857l118.857-118.857c10.286-10.286 24.571-15.429 38.857-15.429 16.571 0 29.714 5.714 41.143 17.714-18.857 18.857-41.143 34.857-41.143 64 0 30.286 24.571 54.857 54.857 54.857 29.143 0 45.143-22.286 64-41.143 12 11.429 18.857 24.571 18.857 41.714zM941.714 256c0-43.429-17.714-85.714-48.571-116l-84-83.429c-30.857-30.857-72.571-47.429-116-47.429-44 0-85.714 17.143-116.571 48.571l-117.714 118.286c-30.857 30.857-47.429 72.571-47.429 116 0 45.143 18.286 88 50.286 119.429l-50.286 50.286c-31.429-32-73.714-50.286-118.857-50.286-43.429 0-85.714 17.143-116.571 48l-118.857 118.857c-31.429 31.429-48 72.571-48 116.571 0 43.429 17.714 85.714 48.571 116l84 83.429c30.857 30.857 72.571 47.429 116 47.429 44 0 85.714-17.143 116.571-48.571l117.714-118.286c30.857-30.857 47.429-72.571 47.429-116 0-45.143-18.286-88-50.286-119.429l50.286-50.286c31.429 32 73.714 50.286 118.857 50.286 43.429 0 85.714-17.143 116.571-48l118.857-118.857c31.429-31.429 48-72.571 48-116.571z" />
<glyph unicode="&#xf0c9;" glyph-name="bars" horiz-adv-x="878" d="M877.714 182.857v-73.143c0-20-16.571-36.571-36.571-36.571h-804.571c-20 0-36.571 16.571-36.571 36.571v73.143c0 20 16.571 36.571 36.571 36.571h804.571c20 0 36.571-16.571 36.571-36.571zM877.714 475.428v-73.143c0-20-16.571-36.571-36.571-36.571h-804.571c-20 0-36.571 16.571-36.571 36.571v73.143c0 20 16.571 36.571 36.571 36.571h804.571c20 0 36.571-16.571 36.571-36.571zM877.714 768v-73.143c0-20-16.571-36.571-36.571-36.571h-804.571c-20 0-36.571 16.571-36.571 36.571v73.143c0 20 16.571 36.571 36.571 36.571h804.571c20 0 36.571-16.571 36.571-36.571z" />
<glyph unicode="&#xf0d5;" glyph-name="google-plus" horiz-adv-x="1378" d="M837.095 500.531c4.114-21.737 7.048-43.474 7.048-71.669 0-246.15-165.079-420.627-413.576-420.627-237.922 0-430.612 192.688-430.612 430.612s192.69 430.612 430.612 430.612c116.318 0 213.25-42.297 288.445-112.794l-116.907-112.205c-31.725 30.549-87.53 66.383-171.538 66.383-146.866 0-266.709-121.605-266.709-271.995s119.845-271.995 266.709-271.995c170.364 0 234.399 122.781 244.383 185.641h-244.383v148.043h406.527zM1252.919 486.095v124.996h-125.597v-124.996h-124.996v-125.597h124.996v-124.996h125.597v124.996h124.996v125.597h-124.996z" />
<glyph unicode="&#xf0e0;" glyph-name="envelope" d="M1023.993 581.712v-453.698c0-50.285-41.142-91.426-91.426-91.426h-841.112c-50.285 0-91.426 41.142-91.426 91.426v453.698c17.143-18.856 36.57-35.427 57.713-49.712 94.854-64.568 190.85-129.138 283.989-197.136 47.998-35.427 107.425-78.854 169.708-78.854h1.143c62.284 0 121.71 43.427 169.708 78.854 93.14 67.426 189.136 132.566 284.561 197.136 20.57 14.285 39.999 30.856 57.141 49.712zM1023.993 749.706c0-63.998-47.428-121.71-97.71-156.565-89.14-61.712-178.851-123.425-267.419-185.707-37.142-25.713-99.997-78.284-146.28-78.284h-1.143c-46.284 0-109.139 52.569-146.28 78.284-88.569 62.284-178.279 123.996-266.848 185.707-40.569 27.428-98.282 91.997-98.282 143.995 0 55.998 30.285 103.996 91.426 103.996h841.112c49.712 0 91.426-41.142 91.426-91.426z" />
<glyph unicode="&#xf0e1;" glyph-name="linkedin" horiz-adv-x="951" d="M212.803-36.527h-197.157v634.764h197.157v-634.764zM114.119 684.825c-63.030 0-114.177 52.208-114.177 115.238s51.146 114.177 114.177 114.177c63.030 0 114.177-51.146 114.177-114.177s-51.146-115.238-114.177-115.238zM950.709-36.527h-196.732v309c0 73.641-1.487 168.082-102.506 168.082-102.506 0-118.209-80.008-118.209-162.776v-314.304h-196.945v634.764h189.093v-86.587h2.76c26.317 49.873 90.62 102.506 186.547 102.506 199.492 0 236.206-131.367 236.206-301.996v-348.686z" />
<glyph unicode="&#xf121;" glyph-name="code" horiz-adv-x="1097" d="M352.571 151.428l-28.571-28.571c-7.429-7.429-18.857-7.429-26.286 0l-266.286 266.286c-7.429 7.429-7.429 18.857 0 26.286l266.286 266.286c7.429 7.429 18.857 7.429 26.286 0l28.571-28.571c7.429-7.429 7.429-18.857 0-26.286l-224.571-224.571 224.571-224.571c7.429-7.429 7.429-18.857 0-26.286zM690.286 761.143l-213.143-737.714c-2.857-9.714-13.143-15.429-22.286-12.571l-35.429 9.714c-9.714 2.857-15.429 13.143-12.571 22.857l213.143 737.714c2.857 9.714 13.143 15.429 22.286 12.571l35.429-9.714c9.714-2.857 15.429-13.143 12.571-22.857zM1065.714 389.143l-266.286-266.286c-7.429-7.429-18.857-7.429-26.286 0l-28.571 28.571c-7.429 7.429-7.429 18.857 0 26.286l224.571 224.571-224.571 224.571c-7.429 7.429-7.429 18.857 0 26.286l28.571 28.571c7.429 7.429 18.857 7.429 26.286 0l266.286-266.286c7.429-7.429 7.429-18.857 0-26.286z" />
<glyph unicode="&#xf167;" glyph-name="youtube" horiz-adv-x="1097" d="M1074.193 703.861c-12.617 47.51-49.794 84.927-96.996 97.625-85.558 23.074-428.633 23.074-428.633 23.074s-343.074 0-428.633-23.074c-47.202-12.701-84.378-50.115-96.996-97.625-22.925-86.114-22.925-265.783-22.925-265.783s0-179.669 22.925-265.783c12.617-47.51 49.794-83.368 96.996-96.066 85.56-23.074 428.633-23.074 428.633-23.074s343.074 0 428.633 23.074c47.202 12.698 84.378 48.557 96.996 96.066 22.925 86.114 22.925 265.783 22.925 265.783s0 179.669-22.925 265.783zM436.356 274.951v326.252l286.744-163.13-286.744-163.122z" />
<glyph unicode="&#xf168;" glyph-name="xing" horiz-adv-x="878" d="M371.872 544.090c-4.113-7.54-57.586-101.459-160.186-282.211-11.196-18.966-24.678-28.566-40.446-28.566h-148.762c-17.594 0-27.651 17.138-19.425 32.905l157.673 277.185c0.457 0 0.457 0.229 0 0.686l-100.315 172.755c-9.826 17.824 0.686 32.221 19.425 32.221h148.762c16.681 0 30.392-9.37 41.133-27.879l102.145-177.096zM874.366 918.62l-329.055-578.131v-0.686l209.316-380.7c8.911-16.223 0.457-32.221-19.425-32.221h-148.99c-17.366 0-31.079 9.141-41.133 27.879l-211.145 385.041c7.54 13.253 117.682 207.488 330.884 583.158 10.512 18.51 23.764 27.879 39.989 27.879h150.132c18.28 0 28.108-15.31 19.425-32.221z" />
<glyph unicode="&#xf16b;" glyph-name="dropbox" horiz-adv-x="1097" d="M549.407 729.138l-274.277-175.164 274.277-175.164-274.277-175.164-275.109 176.825 274.901 175.164-274.901 173.501 274.901 175.164 274.485-175.164zM273.467 148.583l274.277 175.164 274.277-175.164-274.277-175.164-274.277 175.164zM549.407 380.472l274.277 175.164-274.277 173.708 272.823 174.955 274.901-175.164-274.901-175.164 274.901-174.955-274.901-175.164-272.823 176.619z" />
<glyph unicode="&#xf16c;" glyph-name="stack-overflow" horiz-adv-x="951" d="M707.889 338.288l-414.163 193.138 38.17 83.427 414.392-193.596-38.399-82.969zM817.601 511.999l-350.849 293.251-58.284-70.398 350.849-293.251 58.284 70.398zM908.114 584.454l-272.68 366.393-73.141-54.856 272.68-366.393 73.141 54.856zM701.032 313.145l-447.305 94.398-18.743-89.827 447.305-93.712 18.743 89.141zM773.26 18.295h-639.072v274.28h-91.427v-365.707h821.697v365.707h-91.427v-274.28zM682.29 201.147h-457.133v-90.741h457.133v90.741z" />
<glyph unicode="&#xf16d;" glyph-name="instagram" horiz-adv-x="951" d="M475.534 682.623c-134.929 0-243.763-108.834-243.763-243.763s108.834-243.763 243.763-243.763 243.763 108.834 243.763 243.763-108.834 243.763-243.763 243.763zM475.534 280.381c-87.194 0-158.478 71.071-158.478 158.478s71.071 158.478 158.478 158.478 158.478-71.071 158.478-158.478-71.283-158.478-158.478-158.478zM786.125 692.595c0-31.61-25.459-56.857-56.857-56.857-31.61 0-56.857 25.459-56.857 56.857s25.459 56.857 56.857 56.857 56.857-25.459 56.857-56.857zM947.574 634.889c-3.606 76.163-21.003 143.627-76.798 199.211-55.584 55.584-123.049 72.981-199.211 76.798-78.497 4.455-313.773 4.455-392.27 0-75.95-3.606-143.416-21.003-199.211-76.588s-72.981-123.049-76.798-199.211c-4.455-78.497-4.455-313.773 0-392.27 3.606-76.163 21.003-143.627 76.798-199.211s123.049-72.981 199.211-76.798c78.497-4.455 313.773-4.455 392.27 0 76.163 3.606 143.627 21.003 199.211 76.798 55.584 55.584 72.981 123.049 76.798 199.211 4.455 78.497 4.455 313.561 0 392.058zM846.164 158.606c-16.548-41.582-48.584-73.617-90.377-90.377-62.585-24.821-211.092-19.093-280.253-19.093s-217.881-5.516-280.253 19.093c-41.582 16.548-73.617 48.584-90.377 90.377-24.821 62.585-19.093 211.092-19.093 280.253s-5.516 217.881 19.093 280.253c16.548 41.582 48.584 73.617 90.377 90.377 62.585 24.821 211.092 19.093 280.253 19.093s217.881 5.516 280.253-19.093c41.582-16.548 73.617-48.584 90.377-90.377 24.821-62.585 19.093-211.092 19.093-280.253s5.728-217.881-19.093-280.253z" />
<glyph unicode="&#xf16e;" glyph-name="flickr" horiz-adv-x="951" d="M849.034 914.347h-747.206c-56.253 0-101.893-45.639-101.893-101.893v-747.206c0-56.253 45.639-101.893 101.893-101.893h747.206c56.253 0 101.893 45.639 101.893 101.893v747.206c0 56.253-45.639 101.893-101.893 101.893zM306.673 305.119c-74.508 0-134.794 60.286-134.794 134.794s60.286 134.794 134.794 134.794 134.794-60.286 134.794-134.794-60.286-134.794-134.794-134.794zM644.188 305.119c-74.508 0-134.794 60.286-134.794 134.794s60.286 134.794 134.794 134.794 134.794-60.286 134.794-134.794-60.286-134.794-134.794-134.794z" />
<glyph unicode="&#xf173;" glyph-name="tumblr" horiz-adv-x="634" d="M594.992 22.324c-25.256-26.928-92.851-58.869-180.876-58.869-224.331 0-272.986 164.907-272.986 261.101v267.415h-88.209c-10.213 0-18.57 8.357-18.57 18.57v126.279c0 13.37 8.357 25.256 20.984 29.713 115.137 40.484 151.349 141.135 156.549 217.461 1.486 20.428 12.070 30.27 29.898 30.27h131.665c10.213 0 18.57-8.357 18.57-18.57v-213.932h154.135c10.213 0 18.57-8.17 18.57-18.386v-151.721c0-10.213-8.357-18.57-18.57-18.57h-154.878v-247.36c0-63.51 44.011-99.537 126.279-66.483 8.913 3.529 16.713 5.943 23.585 4.086 6.5-1.67 10.77-6.313 13.743-14.67l40.855-119.409c3.343-9.286 6.129-19.686-0.743-26.928z" />
<glyph unicode="&#xf17d;" glyph-name="dribbble" horiz-adv-x="951" d="M475.434 914.344c-262.186 0-475.488-213.302-475.488-475.488s213.302-475.488 475.488-475.488 475.488 213.302 475.488 475.488-213.302 475.488-475.488 475.488zM789.813 695.071c56.566-69.111 90.82-157.136 91.714-252.996-13.39 2.832-147.666 30.067-282.804 13.072-11.029 26.921-21.437 50.603-35.694 79.787 150.165 61.309 218.223 148.556 226.785 160.138zM744.663 742.037c-7.304-10.405-68.442-92.579-212.86-146.71-66.552 122.277-140.317 222.728-151.543 237.759 128.796 31.046 264.521-2.435 364.402-91.050zM302.765 805.787c10.708-14.684 83.283-115.26 150.578-234.886-189.979-50.449-357.307-49.723-375.471-49.483 26.336 126.029 111.268 230.774 224.893 284.369zM69.294 438.236c0 4.153 0.083 8.286 0.207 12.411 17.769-0.365 214.583-2.901 417.406 57.798 11.627-22.755 22.733-45.852 32.927-68.924-146.863-41.365-280.297-160.146-346.131-272.843-64.868 72.002-104.41 167.244-104.41 271.558zM226.142 117.831c42.423 86.724 157.559 198.674 321.297 254.532 57.021-148.174 80.601-272.357 86.641-307.991-130.591-55.626-287.623-40.364-407.938 53.458zM702.359 101.556c-4.163 24.707-25.78 143.6-78.901 289.575 127.27 20.373 239.087-12.976 252.981-17.362-18.104-113.007-82.968-210.603-174.080-272.213z" />
<glyph unicode="&#xf189;" glyph-name="vk" horiz-adv-x="1134" d="M1108.048 729.993c7.789 26.314 0 45.681-37.471 45.681h-123.991c-31.577 0-46.102-16.631-53.891-35.155 0 0-63.153-153.883-152.41-253.665-28.84-28.84-42.102-38.103-57.89-38.103-7.789 0-19.788 9.262-19.788 35.577v245.666c0 31.577-8.841 45.681-34.945 45.681h-194.933c-19.788 0-31.577-14.736-31.577-28.419 0-29.893 44.628-36.84 49.259-121.043v-182.723c0-39.997-7.158-47.365-22.946-47.365-42.102 0-144.41 154.515-205.037 331.343-12.21 34.313-24.209 48.207-55.996 48.207h-123.991c-35.366 0-42.523-16.631-42.523-35.155 0-32.84 42.102-195.986 195.986-411.548 102.519-147.147 246.929-226.931 378.288-226.931 78.941 0 88.625 17.683 88.625 48.207 0 140.621-7.158 153.883 32.419 153.883 18.314 0 49.891-9.262 123.569-80.205 84.204-84.204 98.098-121.886 145.252-121.886h123.991c35.366 0 53.259 17.683 42.944 52.628-23.577 73.468-182.933 224.615-190.091 234.719-18.314 23.577-13.051 34.103 0 55.154 0.211 0.211 151.568 213.247 167.145 285.452z" />
<glyph unicode="&#xf1a1;" glyph-name="reddit" horiz-adv-x="951" d="M370.943 343.948c-26.459 0-47.74 21.282-47.74 47.165 0 26.459 21.282 47.74 47.74 47.74 26.075 0 47.165-21.282 47.165-47.74 0-26.075-21.282-47.165-47.165-47.165zM950.923 438.853c0-262.668-212.819-475.487-475.487-475.487s-475.487 212.819-475.487 475.487 212.819 475.487 475.487 475.487 475.487-212.819 475.487-475.487zM697.266 517.845c-18.023 0-33.936-7.477-45.632-19.173-42.947 29.718-100.849 48.891-165.079 51l33.361 150.124 106.217-23.966c0-26.075 21.282-47.165 47.165-47.165 26.459 0 47.74 21.665 47.74 47.74s-21.282 47.74-47.74 47.74c-18.598 0-34.511-11.12-42.371-26.459l-117.338 26.075c-5.751 1.533-11.696-2.684-13.229-8.435l-36.62-165.654c-63.654-2.684-120.981-21.665-163.928-51.384-11.696 12.271-28.184 19.557-46.207 19.557-66.913 0-88.771-89.921-27.609-120.406-2.109-9.586-3.259-19.557-3.259-29.718 0-100.849 113.504-182.525 253.082-182.525 140.153 0 253.657 81.676 253.657 182.525 0 10.161-1.151 20.706-3.643 30.293 60.011 30.677 37.962 119.83-28.567 119.83zM565.164 295.057c-34.894-34.894-145.906-34.319-179.458 0-4.218 4.218-11.696 4.218-15.913 0-4.793-4.793-4.793-12.271 0-16.488 43.714-43.714 167.379-43.714 211.286 0 4.793 4.218 4.793 11.696 0 16.488-4.218 4.218-11.696 4.218-15.913 0zM579.927 438.853c-26.075 0-47.165-21.282-47.165-47.74 0-26.075 21.282-47.165 47.165-47.165 26.459 0 47.74 21.282 47.74 47.165 0 26.459-21.090 47.74-47.74 47.74z" />
<glyph unicode="&#xf1b4;" glyph-name="behance" horiz-adv-x="1317" d="M533.178 480.749c71.049 33.961 108.137 85.347 108.137 165.332 0 157.738-117.521 196.165-253.138 196.165h-373.34v-791.811h383.841c143.885 0 279.056 69.038 279.056 229.902 0 99.423-47.143 172.929-144.553 200.41zM188.883 707.077h163.322c62.781 0 119.308-17.651 119.308-90.486 0-67.251-44.014-94.283-106.126-94.283h-176.504v184.77zM374.994 184.938h-186.111v218.060h189.686c76.634 0 125.116-31.948 125.116-113.052 0-79.986-57.867-105.010-128.69-105.010zM1175.964 722.717h-321.057v77.975h321.057v-77.975zM1301.75 328.823c0 169.578-99.199 311.005-279.056 311.005-174.716 0-293.354-131.371-293.354-303.408 0-178.515 112.381-300.95 293.354-300.95 136.959 0 225.657 61.665 268.33 192.812h-138.969c-14.97-48.93-76.634-74.846-124.447-74.846-92.273 0-140.756 54.067-140.756 145.895h413.556c0.671 9.384 1.341 19.438 1.341 29.493zM887.078 398.53c5.139 75.294 55.186 122.435 130.703 122.435 79.092 0 118.861-46.472 125.564-122.435h-256.267z" />
<glyph unicode="&#xf1bc;" glyph-name="spotify" horiz-adv-x="951" d="M475.43 914.349c-262.477 0-475.488-213.012-475.488-475.488s213.012-475.488 475.488-475.488 475.488 213.012 475.488 475.488-213.012 475.488-475.488 475.488zM668.502 214.727c-8.053 0-13.037 2.493-20.515 6.902-119.639 72.090-258.835 75.158-396.304 46.973-7.477-1.918-17.256-4.984-22.816-4.984-18.598 0-30.293 14.763-30.293 30.293 0 19.748 11.695 29.142 26.076 32.21 157.026 34.704 317.503 31.635 454.399-50.233 11.695-7.477 18.598-14.188 18.598-31.635s-13.612-29.527-29.142-29.527zM720.077 340.502c-9.97 0-16.681 4.41-23.583 8.053-119.831 70.94-298.522 99.507-457.466 56.368-9.203-2.493-14.188-4.984-22.816-4.984-20.515 0-37.195 16.681-37.195 37.195s9.97 34.128 29.717 39.688c53.301 14.955 107.752 26.076 187.512 26.076 124.433 0 244.647-30.868 339.361-87.236 15.53-9.203 21.665-21.090 21.665-37.77-0.192-20.707-16.297-37.387-37.195-37.387zM779.513 486.6c-9.97 0-16.105 2.493-24.733 7.477-136.512 81.485-380.583 101.041-538.568 56.944-6.902-1.918-15.53-4.984-24.733-4.984-25.309 0-44.673 19.748-44.673 45.248 0 26.076 16.105 40.838 33.361 45.823 67.489 19.748 143.030 29.142 225.282 29.142 139.963 0 286.635-29.142 393.811-91.647 14.955-8.628 24.733-20.515 24.733-43.331 0-26.076-21.090-44.673-44.481-44.673z" />
<glyph unicode="&#xf1bd;" glyph-name="deviantart" horiz-adv-x="707" d="M673.489 764.593l-196.474-358.334 14.805-19.007h181.668v-255.495h-321.92l-27.010-18.407-87.432-168.063c-0.6 0-17.206-17.206-18.407-18.407h-185.469v186.469l186.469 358.934-14.805 18.407h-171.664v255.295h312.116l27.010 18.407 87.432 168.063c0.6 0 17.206 17.206 18.407 18.407h195.273v-186.27z" />
<glyph unicode="&#xf1be;" glyph-name="soundcloud" horiz-adv-x="1390" d="M248.489 438.318l12.415-139.12-12.415-146.183c-0.642-5.351-4.709-9.417-9.417-9.417s-8.99 4.067-8.99 9.417l-11.985 146.183 11.985 139.12c0 4.709 4.067 8.99 8.99 8.99 4.709 0 8.775-4.281 9.417-8.99zM294.292 535.917c-5.993 0-10.059-4.709-10.701-10.701l-10.701-226.017 10.701-146.183c0.642-5.993 4.709-10.701 10.701-10.701 5.351 0 10.059 4.709 10.059 10.701l12.415 146.183-12.415 226.017c0 5.993-4.709 10.701-10.059 10.701zM348.87 587.498c-6.635 0-11.343-4.709-11.985-11.343l-9.417-278.241 9.417-145.113c0.642-6.635 5.351-11.343 11.985-11.343 5.993 0 11.343 4.709 11.343 11.343l11.343 145.113-11.343 278.241c0 6.635-5.351 11.343-11.343 11.343zM25.469 380.744c-2.997 0-4.709-2.354-5.351-5.351l-10.059-76.195 10.059-74.911c0.642-2.997 2.354-5.351 5.351-5.351s4.709 2.354 5.351 5.351l11.985 74.911-11.985 76.195c-0.642 2.997-2.354 5.351-5.351 5.351zM75.98 427.617c-2.997 0-5.351-2.354-5.351-5.351l-13.699-123.068 13.699-120.071c0-3.639 2.354-5.993 5.351-5.993s5.351 2.354 5.993 5.351l15.41 120.713-15.41 123.068c-0.642 2.997-2.997 5.351-5.993 5.351zM130.13 452.017c-3.639 0-6.635-2.997-7.063-7.063l-12.415-145.755 12.415-140.833c0.642-3.639 3.639-6.635 7.063-6.635 3.639 0 6.635 2.997 6.635 6.635l14.768 140.833-14.768 145.755c0 4.067-2.997 7.063-6.635 7.063zM184.28 456.726c-4.067 0-7.706-2.997-7.706-7.706l-12.415-149.822 12.415-145.113c0-4.709 3.639-7.706 7.706-7.706s7.706 2.997 8.348 7.706l13.699 145.113-13.699 149.822c-0.642 4.709-4.281 7.706-8.348 7.706zM700.951 694.086c-2.354 1.712-5.993 2.997-8.99 2.997-4.709 0-8.99-1.712-11.985-4.067-4.067-3.639-6.635-8.99-7.063-14.341v-1.712l-7.063-378.194 3.639-69.561 3.639-67.848c0.642-10.059 8.99-18.407 19.049-18.407s18.407 8.348 18.407 18.407l8.348 137.408-8.348 379.905c-0.857 6.421-4.281 12.415-9.632 15.41zM643.805 661.34c-2.997 1.712-5.993 2.997-9.417 2.997s-6.635-1.284-9.417-2.997c-4.709-2.997-7.706-8.348-7.706-14.341l-0.642-3.639-5.993-344.162s0-0.642 6.635-140.404v-0.642c0-3.639 1.284-7.063 3.639-10.059 3.639-4.067 8.348-6.635 13.699-6.635 4.709 0 8.99 2.354 11.985 5.351 3.639 2.997 5.351 7.063 5.351 11.985l0.642 14.341 6.635 125.422-7.063 348.443c-0.642 5.993-3.639 11.343-8.348 14.341zM405.374 613.182c-6.635 0-12.415-5.993-12.415-13.057l-9.417-300.927 9.417-143.829c0.642-7.063 5.993-12.415 12.415-12.415 7.063 0 12.415 5.351 13.057 12.415l10.701 143.829-10.701 300.927c-0.427 7.063-5.778 13.057-13.057 13.057zM1211.63 478.77c-23.116 0-45.161-4.709-65.494-13.057-13.699 151.534-140.833 270.536-296.005 270.536-38.098 0-74.911-7.063-107.658-20.119-13.057-4.709-16.694-9.417-16.694-19.691v-534.436c0-10.701 8.348-18.407 18.407-19.691h467.23c92.676 0 168.229 74.911 168.229 167.587 0.215 93.318-75.339 168.871-168.014 168.871zM576.599 607.831c-8.99 0-16.052-7.063-16.694-16.694l-7.063-292.581 7.063-140.404c0.642-8.99 7.706-16.052 16.694-16.052s16.052 7.063 16.052 16.052l8.348 140.404-8.348 292.581c-0.642 9.632-7.063 16.694-16.052 16.694zM461.878 624.525c-7.063 0-13.699-6.635-13.699-14.341l-8.348-310.987 8.348-143.187c0.642-7.706 6.635-13.699 13.699-13.699 7.706 0 13.699 5.993 14.341 13.699l9.417 143.187-9.417 310.987c-0.642 7.706-6.635 14.341-14.341 14.341zM519.025 617.249c-8.348 0-14.768-6.635-14.768-14.768l-8.348-303.283 8.348-142.117c0.642-8.348 6.635-14.768 14.768-14.768s14.768 6.635 14.768 14.768l8.99 142.117-8.99 303.283c0 8.348-6.421 14.768-14.768 14.768z" />
<glyph unicode="&#xf1cb;" glyph-name="codepen" d="M1004.555 631.454l-467.993 311.995c-15.974 9.83-33.021 9.92-49.141 0l-467.993-311.995c-12-7.998-19.428-22.286-19.428-36.569v-311.993c0-14.286 7.428-28.572 19.43-36.572l467.993-312.039c15.974-9.83 33.021-9.92 49.141 0l467.993 312.039c12 7.998 19.43 22.286 19.43 36.572v311.993c-0.002 14.284-7.43 28.572-19.431 36.569zM555.991 824.597l344.566-229.712-153.712-102.856-190.855 127.428v205.141zM467.993 824.597v-205.141l-190.855-127.428-153.712 102.856 344.566 229.712zM87.999 512.6l110.284-73.713-110.284-73.713v147.426zM467.993 53.177l-344.566 229.712 153.712 102.856 190.855-127.428v-205.141zM511.993 334.888l-155.428 103.999 155.428 103.999 155.428-103.999-155.428-103.999zM555.991 53.177v205.141l190.855 127.428 153.712-102.856-344.566-229.712zM935.986 365.174l-110.284 73.713 110.284 73.713v-147.426z" />
<glyph unicode="&#xf231;" glyph-name="pinterest" horiz-adv-x="878" d="M463.476 950.84c-210.492 0-418.523-140.328-418.523-367.438 0-144.431 81.243-226.495 130.481-226.495 20.311 0 32.005 56.624 32.005 72.626 0 19.080-48.622 59.701-48.622 139.097 0 164.947 125.557 281.887 288.042 281.887 139.713 0 243.112-79.396 243.112-225.264 0-108.939-43.699-313.276-185.258-313.276-51.084 0-94.783 36.928-94.783 89.859 0 77.55 54.162 152.638 54.162 232.649 0 135.814-192.643 111.195-192.643-52.931 0-34.467 4.308-72.626 19.695-104.015-28.312-121.864-86.166-303.429-86.166-428.986 0-38.775 5.539-76.934 9.232-115.709 6.976-7.796 3.487-6.976 14.156-3.077 103.4 141.559 99.707 169.255 146.483 354.513 25.234-48.007 90.475-73.857 142.175-73.857 217.878 0 315.738 212.339 315.738 403.751 0 203.722-176.026 336.664-369.285 336.664z" />
<glyph unicode="&#xf26e;" glyph-name="500px" horiz-adv-x="829" d="M164.779 255.488c-13.5 29.493-14.331 38.008 15.369 47.977 53.17 16.615 16.615-19.108 89.724-102.185h0.623v195.024c2.492 104.262 91.385 191.494 202.916 191.494 111.947 0 202.916-90.347 202.916-201.047 0-131.678-126.277-235.109-266.886-193.778-21.808 8.723-4.362 65.839 17.654 59.401 110.077 0 185.678 20.977 185.678 133.754 0 126.693-160.132 186.093-242.794 92.631-48.808-54.831-36.554-87.439-36.554-327.325 105.301-64.385 245.702-45.693 333.14 41.746 51.508 51.508 79.962 120.463 79.962 193.155 0 73.108-28.662 141.647-80.585 193.778-51.508 51.508-120.047 79.962-193.778 79.962s-142.893-28.662-194.193-79.962c-0.623-0.623-33.231-34.269-44.031-49.638l-1.038-1.246c-6.854-9.761-13.085-18.9-41.746-12.67-14.331 3.531-29.7 12.046-29.7 24.508v387.971c0 10.384 8.1 21.808 21.808 21.808h501.165c17.238 0 17.238-24.092 17.238-31.362 0-8.1 0-31.362-17.238-31.362h-463.572v-276.025h0.623c216.417 228.048 587.357 74.77 587.357-226.178 0-369.902-508.434-457.549-644.057-130.432zM296.249 797.152c-1.038-8.723 9.554-50.885 30.323-42.785 259.202 98.655 421.203-83.908 434.91-83.908 9.969 0 47.354 31.777 29.7 47.354-193.57 184.847-487.041 118.385-494.934 79.339zM766.467 109.271c-228.463-228.255-621.003-126.277-689.542 216.417 0 25.338-63.139 15.369-60.024-6.854 49.846-360.141 510.926-533.565 792.559-251.933 14.331 16.2-26.169 58.985-42.993 42.369zM393.865 333.788c0-8.308 8.931-15.162 11.423-17.654 6.231-6.231 12.67-9.138 17.654-9.138 7.892 0 5.4-0.415 46.316 40.5 40.708-40.085 39.669-40.5 46.316-40.5 11.215 0 38.423 21.6 22.223 37.8l-35.931 35.931 37.8 37.8c13.085 14.123-20.977 45.277-33.646 32.608l-37.177-37.177c-38.631 39.046-38.216 40.5-44.654 40.5-10.384 0-37.385-24.3-25.754-35.931l37.8-37.8c-37.593-37.177-42.369-39.877-42.369-46.939z" />
<glyph unicode="&#xf27d;" glyph-name="vimeo" d="M1023.501 677.041c-4.569-99.653-74.054-236.104-208.905-409.352-139.193-181.020-256.902-271.529-353.354-271.529-59.654 0-110.166 55.083-151.536 165.25-80.454 295.301-114.737 468.321-181.249 468.321-7.771 0-34.512-16.227-80.454-48.226l-47.997 62.168c117.938 103.537 230.618 218.733 301.243 225.132 79.768 7.771 128.679-46.856 147.193-163.422 65.596-414.837 94.625-477.463 213.932-289.587 42.741 67.654 65.826 119.079 69.025 154.507 10.971 104.91-81.825 97.823-144.679 70.854 50.283 164.791 146.507 244.788 288.443 240.217 104.681-2.743 154.278-71.082 148.336-204.333z" />
<glyph unicode="&#xf289;" glyph-name="mixcloud" horiz-adv-x="1390" d="M922.303 517.881c-18.097 185.214-174.957 330.607-364.995 330.607-157.462 0-296.822-101.356-346.897-248.559-118.85-17.494-210.55-119.453-210.55-243.129 0-135.743 110.402-246.145 246.747-246.145h631.050c114.021 0 206.931 92.304 206.931 206.33 0 98.336-69.982 180.989-162.285 200.897zM877.66 202.96h-631.050c-85.066 0-154.445 68.775-154.445 153.84s69.378 153.84 154.445 153.84c41.023 0 79.636-16.287 108.594-45.248 43.499-43.499 109.235 22.284 65.76 65.76-31.976 31.372-71.191 53.090-113.42 63.949 43.436 96.526 141.172 161.079 249.767 161.079 151.427 0 274.5-123.072 274.5-273.896 0-29.564-4.826-58.52-13.877-86.272-19.485-59.957 70.016-84.846 87.478-28.959 6.033 18.097 10.86 36.8 13.877 55.501 42.23-16.29 72.999-57.313 72.999-105.575 0-62.743-51.281-114.023-114.626-114.023zM1389.859 316.984c0-95.926-27.753-188.229-80.843-267.261-9.049-13.273-23.53-20.512-38.61-20.512-35.554 0-59.108 41.021-38.008 71.794 42.23 63.949 65.155 138.759 65.155 215.98s-22.924 152.030-65.155 215.377c-34.111 49.747 42.186 102.932 76.618 51.278 53.091-78.427 80.843-170.732 80.843-266.655zM1235.416 316.984c0-68.778-19.909-135.139-58.52-192.453-9.049-13.272-23.53-19.907-38.61-19.907-37.479 0-58.88 41.354-38.008 71.79 28.355 41.627 42.833 89.891 42.833 140.569 0 50.075-14.478 98.94-42.833 140.567-34.342 50.085 41.418 102.617 76.618 51.281 38.608-56.709 58.52-123.072 58.52-191.848z" />
<glyph unicode="&#xf296;" glyph-name="gitlab" horiz-adv-x="1072" d="M62.41 556.711l473.813-615.744-519.279 385.419c-14.36 10.77-20.342 29.315-14.957 46.064l60.424 184.261zM220.346 922.841c-6.581 18.545-32.903 18.545-39.483 0l-118.453-366.13h276.391l-118.457 366.13zM338.802 556.711l197.42-615.744 197.42 615.744h-394.842zM1070.459 372.45l-60.424 184.261-473.813-615.744 519.279 385.419c14.358 10.77 20.34 29.315 14.957 46.064zM891.581 922.841c-6.581 18.545-32.903 18.545-39.483 0l-118.454-366.13h276.391l-118.454 366.13z" />
<glyph unicode="&#xf2c4;" glyph-name="quora" d="M1006.851 140.128h-66.969c-3.428-30.856-23.999-70.398-75.427-70.398-46.856 0-80.683 32.457-113.14 81.827 101.026 78.17 170.739 199.994 170.739 349.706 0.229 268.565-220.795 449.588-453.475 449.588-227.881 0-451.875-182.167-451.875-449.588 0-306.507 300.107-506.502 569.129-431.989 45.027-76.799 104.455-142.396 217.594-142.396 186.967 0 207.538 172.111 203.423 213.251zM678.859 271.553c-44.571 66.741-99.884 119.311-209.137 119.311-69.712 0-124.111-22.857-157.71-52.113l27.885-55.541c14.171 6.857 29.714 9.143 45.257 9.143 81.141 0 122.739-70.398 158.168-140.111-22.857-6.857-47.313-9.6-74.742-9.6-171.425 0-245.709 121.14-245.709 358.163 0 238.622 74.284 360.906 245.709 360.906 174.168 0 248.451-122.284 248.451-360.448 0.229-95.541-12.343-172.795-38.17-229.709z" />
<glyph unicode="&#xf39e;" glyph-name="facebook" horiz-adv-x="704" d="M241.403-73.121v457.986h-153.395v181.994h153.395v143.395c0 155.795 95.197 240.592 234.193 240.592 66.598 0 123.796-5 140.396-7.2v-162.795h-96.397c-75.598 0-90.197-35.999-90.197-88.597v-125.396h170.595l-23.399-181.994h-147.196v-457.986" />
<glyph unicode="&#xf3c7;" glyph-name="medium" d="M121.311 679.345c1.27 12.489-3.598 24.981-12.914 33.448l-95.474 115.163v17.148h296.798l229.479-503.2 201.746 503.2h283.036v-17.148l-81.714-78.328c-6.986-5.292-10.584-14.183-9.103-22.863v-575.812c-1.482-8.679 2.117-17.57 9.103-22.863l79.809-78.328v-17.148h-401.587v17.148l82.773 80.233c8.044 8.044 8.044 10.584 8.044 22.863v465.307l-230.113-584.067h-31.119l-267.583 584.067v-391.425c-2.328-16.513 3.175-33.024 14.82-44.879l107.541-130.405v-17.148h-304.841v16.936l107.541 130.616c11.431 11.854 16.725 28.579 13.759 44.879v452.605z" />
<glyph unicode="&#xf3d9;" glyph-name="patreon" horiz-adv-x="1097" d="M1082.46 566.489c0-211.262-171.846-383.317-383.317-383.317-212.096 0-384.568 171.846-384.568 383.317 0 211.888 172.471 384.36 384.568 384.36 211.471 0 383.317-172.471 383.317-384.36zM14.679-73.136h187.696v1023.985h-187.696v-1023.985z" />
</font>
</defs>
</svg>
